<svg width="25" height="26" viewBox="0 0 25 26" fill="none" xmlns="http://www.w3.org/2000/svg">
<path d="M10.5469 0.5H14.4531C15.1025 0.5 15.625 1.02246 15.625 1.67188V9.875H19.9072C20.7764 9.875 21.2109 10.9248 20.5957 11.54L13.1689 18.9717C12.8027 19.3379 12.2021 19.3379 11.8359 18.9717L4.39941 11.54C3.78418 10.9248 4.21875 9.875 5.08789 9.875H9.375V1.67188C9.375 1.02246 9.89746 0.5 10.5469 0.5ZM25 18.8594V24.3281C25 24.9775 24.4775 25.5 23.8281 25.5H1.17188C0.522461 25.5 0 24.9775 0 24.3281V18.8594C0 18.21 0.522461 17.6875 1.17188 17.6875H8.33496L10.7275 20.0801C11.709 21.0615 13.291 21.0615 14.2725 20.0801L16.665 17.6875H23.8281C24.4775 17.6875 25 18.21 25 18.8594ZM18.9453 23.1562C18.9453 22.6191 18.5059 22.1797 17.9688 22.1797C17.4316 22.1797 16.9922 22.6191 16.9922 23.1562C16.9922 23.6934 17.4316 24.1328 17.9688 24.1328C18.5059 24.1328 18.9453 23.6934 18.9453 23.1562ZM22.0703 23.1562C22.0703 22.6191 21.6309 22.1797 21.0938 22.1797C20.5566 22.1797 20.1172 22.6191 20.1172 23.1562C20.1172 23.6934 20.5566 24.1328 21.0938 24.1328C21.6309 24.1328 22.0703 23.6934 22.0703 23.1562Z" fill="black"/>
</svg>
