<svg width="41" height="40" viewBox="0 0 41 40" fill="none" xmlns="http://www.w3.org/2000/svg">
<path fill-rule="evenodd" clip-rule="evenodd" d="M20.6667 0C9.61675 0 0.666748 8.95 0.666748 20C0.666748 28.85 6.39175 36.325 14.3417 38.975C15.3417 39.15 15.7167 38.55 15.7167 38.025C15.7167 37.55 15.6917 35.975 15.6917 34.3C10.6667 35.225 9.36675 33.075 8.96675 31.95C8.74175 31.375 7.76675 29.6 6.91675 29.125C6.21675 28.75 5.21675 27.825 6.89175 27.8C8.46675 27.775 9.59175 29.25 9.96675 29.85C11.7667 32.875 14.6417 32.025 15.7917 31.5C15.9667 30.2 16.4917 29.325 17.0667 28.825C12.6167 28.325 7.96675 26.6 7.96675 18.95C7.96675 16.775 8.74175 14.975 10.0167 13.575C9.81675 13.075 9.11675 11.025 10.2167 8.275C10.2167 8.275 11.8917 7.75 15.7167 10.325C17.3167 9.875 19.0167 9.65 20.7167 9.65C22.4167 9.65 24.1167 9.875 25.7167 10.325C29.5417 7.725 31.2167 8.275 31.2167 8.275C32.3167 11.025 31.6167 13.075 31.4167 13.575C32.6917 14.975 33.4667 16.75 33.4667 18.95C33.4667 26.625 28.7917 28.325 24.3417 28.825C25.0667 29.45 25.6917 30.65 25.6917 32.525C25.6917 35.2 25.6667 37.35 25.6667 38.025C25.6667 38.55 26.0417 39.175 27.0417 38.975C31.012 37.6345 34.462 35.0828 36.9062 31.6789C39.3503 28.2751 40.6656 24.1905 40.6667 20C40.6667 8.95 31.7167 0 20.6667 0Z" fill="black"/>
</svg>
