<svg width="37" height="38" viewBox="0 0 37 38" fill="none" xmlns="http://www.w3.org/2000/svg">
<path fill-rule="evenodd" clip-rule="evenodd" d="M0.333497 3.72999C0.333497 2.91755 0.65624 2.13838 1.23073 1.56389C1.80521 0.989404 2.58438 0.666661 3.39683 0.666661H33.9335C34.3361 0.666003 34.7349 0.744765 35.1071 0.898438C35.4792 1.05211 35.8174 1.27768 36.1022 1.56222C36.3871 1.84677 36.613 2.1847 36.7671 2.55668C36.9212 2.92865 37.0004 3.32737 37.0002 3.72999V34.2667C37.0006 34.6694 36.9216 35.0682 36.7678 35.4404C36.6139 35.8125 36.3882 36.1507 36.1035 36.4355C35.8188 36.7203 35.4808 36.9463 35.1087 37.1003C34.7367 37.2544 34.3379 37.3335 33.9352 37.3333H3.39683C2.99441 37.3333 2.59593 37.254 2.22416 37.1C1.85239 36.9459 1.51462 36.7201 1.23014 36.4355C0.945658 36.1509 0.720049 35.813 0.5662 35.4411C0.412352 35.0693 0.333278 34.6707 0.333497 34.2683V3.72999ZM14.8468 14.6467H19.8118V17.14C20.5285 15.7067 22.3618 14.4167 25.1168 14.4167C30.3985 14.4167 31.6502 17.2717 31.6502 22.51V32.2133H26.3052V23.7033C26.3052 20.72 25.5885 19.0367 23.7685 19.0367C21.2435 19.0367 20.1935 20.8517 20.1935 23.7033V32.2133H14.8468V14.6467ZM5.68016 31.985H11.0268V14.4167H5.68016V31.9833V31.985ZM11.7918 8.68666C11.8019 9.14445 11.7205 9.59964 11.5522 10.0255C11.384 10.4514 11.1324 10.8394 10.8122 11.1667C10.492 11.494 10.1097 11.7541 9.68759 11.9317C9.26552 12.1092 8.81223 12.2007 8.35433 12.2007C7.89643 12.2007 7.44314 12.1092 7.02107 11.9317C6.599 11.7541 6.21664 11.494 5.89644 11.1667C5.57624 10.8394 5.32465 10.4514 5.15643 10.0255C4.98821 9.59964 4.90675 9.14445 4.91683 8.68666C4.93662 7.78808 5.30747 6.93298 5.94997 6.30447C6.59247 5.67596 7.45554 5.32402 8.35433 5.32402C9.25312 5.32402 10.1162 5.67596 10.7587 6.30447C11.4012 6.93298 11.772 7.78808 11.7918 8.68666Z" fill="black"/>
</svg>
