<svg width="41" height="32" viewBox="0 0 41 32" fill="none" xmlns="http://www.w3.org/2000/svg">
<path d="M36.6667 0H4.66675C2.46675 0 0.686748 1.8 0.686748 4L0.666748 28C0.666748 30.2 2.46675 32 4.66675 32H36.6667C38.8667 32 40.6667 30.2 40.6667 28V4C40.6667 1.8 38.8667 0 36.6667 0ZM35.8667 8.5L21.7267 17.34C21.0867 17.74 20.2467 17.74 19.6067 17.34L5.46675 8.5C5.2662 8.38742 5.09059 8.23532 4.95053 8.05291C4.81046 7.87049 4.70887 7.66156 4.6519 7.43874C4.59493 7.21593 4.58375 6.98387 4.61906 6.75661C4.65437 6.52936 4.73542 6.31163 4.85731 6.1166C4.9792 5.92158 5.1394 5.75331 5.3282 5.62199C5.517 5.49067 5.73049 5.39902 5.95574 5.3526C6.18099 5.30617 6.41331 5.30593 6.63866 5.3519C6.864 5.39786 7.07768 5.48907 7.26675 5.62L20.6667 14L34.0667 5.62C34.2558 5.48907 34.4695 5.39786 34.6948 5.3519C34.9202 5.30593 35.1525 5.30617 35.3778 5.3526C35.603 5.39902 35.8165 5.49067 36.0053 5.62199C36.1941 5.75331 36.3543 5.92158 36.4762 6.1166C36.5981 6.31163 36.6791 6.52936 36.7144 6.75661C36.7497 6.98387 36.7386 7.21593 36.6816 7.43874C36.6246 7.66156 36.523 7.87049 36.383 8.05291C36.2429 8.23532 36.0673 8.38742 35.8667 8.5Z" fill="black"/>
</svg>
