<svg width="41" height="40" viewBox="0 0 41 40" fill="none" xmlns="http://www.w3.org/2000/svg">
<path d="M20.6667 0C9.62211 0 0.666748 8.95536 0.666748 20C0.666748 31.0446 9.62211 40 20.6667 40C31.7114 40 40.6667 31.0446 40.6667 20C40.6667 8.95536 31.7114 0 20.6667 0ZM30.2784 15.0759C30.2917 15.2857 30.2917 15.5045 30.2917 15.7188C30.2917 22.2723 25.3007 29.8214 16.1801 29.8214C13.3676 29.8214 10.7605 29.0045 8.56407 27.5982C8.96586 27.6429 9.34978 27.6607 9.7605 27.6607C12.0819 27.6607 14.2159 26.875 15.9167 25.5446C13.7382 25.5 11.9078 24.0714 11.2828 22.1071C12.0462 22.2188 12.7337 22.2188 13.5194 22.0179C12.3977 21.79 11.3894 21.1807 10.6659 20.2937C9.94245 19.4066 9.54838 18.2965 9.55068 17.1518V17.0893C10.2069 17.4598 10.9792 17.6875 11.7873 17.7188C11.108 17.266 10.5509 16.6527 10.1655 15.9332C9.77998 15.2136 9.57801 14.4101 9.57746 13.5938C9.57746 12.6696 9.81853 11.8259 10.2516 11.0938C11.4967 12.6265 13.0504 13.8801 14.8117 14.7731C16.573 15.666 18.5025 16.1784 20.4748 16.2768C19.7739 12.9063 22.2917 10.1786 25.3185 10.1786C26.7471 10.1786 28.0328 10.7768 28.9391 11.7411C30.0596 11.5313 31.131 11.1116 32.0864 10.5491C31.7159 11.6964 30.9391 12.6652 29.9078 13.2768C30.9078 13.1696 31.8721 12.8929 32.765 12.5045C32.0909 13.4955 31.2471 14.375 30.2784 15.0759V15.0759Z" fill="black"/>
</svg>
